<svg width="280" height="80" xmlns="http://www.w3.org/2000/svg">
    <!-- 背景矩形 -->
    <rect x="0" y="0" width="280" height="80" rx="20" ry="20" fill="url(#greenGradient)" />

    <!-- 白色圆点图案 -->
    <!-- <pattern id="dots" x="0" y="0" width="20" height="20" patternUnits="userSpaceOnUse">
        <circle cx="5" cy="5" r="2" fill="white" />
    </pattern>
    <rect x="10" y="10" width="280" height="80" rx="20" ry="20" fill="url(#dots)" opacity="0.3" /> -->

    <!-- 光泽效果 -->
    <g clip-path="url(#clip)">
        <path d="M0,0 Q140,0 280,0 L280,20 Q140,80 0,20 Z" fill="url(#whiteGloss)" />
    </g>

    <defs>
        <filter id="blurFilter" x="0" y="0" width="100%" height="100%">
            <feGaussianBlur in="SourceGraphic" stdDeviation="1" />
        </filter>
    </defs>

    <!-- 底部阴影 -->
    <rect x="3" y="3" width="274" height="72" rx="18" ry="18" fill="rgba(0, 0, 0, 0.2)" filter="url(#blurFilter)" />
    <rect x="1" y="20" width="278" height="60" rx="18" ry="18" fill="url(#shadowGradient)" />

    <!-- 定义渐变 -->
    <defs>
        <linearGradient id="greenGradient" x1="0%" y1="0%" x2="0%" y2="100%">
            <stop offset="0%" style="stop-color:#32cd32; stop-opacity:1" />
            <stop offset="100%" style="stop-color:#2eb82e; stop-opacity:0.8" />
        </linearGradient>
    </defs>

    <!-- 白色高光渐变 -->
    <linearGradient id="whiteGloss" x1="0%" y1="0%" x2="0%" y2="100%">
        <stop offset="0%" style="stop-color:#ffffff; stop-opacity:0.9" />
        <stop offset="100%" style="stop-color:#ffffff; stop-opacity:0.4" />
    </linearGradient>

    <linearGradient id="shadowGradient" x1="0%" y1="0%" x2="0%" y2="100%">
        <stop offset="50%" style=
        "stop-color:#000000; stop-opacity:0" />
        <stop offset="100%" style=
        "stop-color:#000000; stop-opacity:0.6" />
    </linearGradient>

    <defs>
        <clipPath id="clip">
            <rect x="3" y="3" width="274" height="80" rx="18" ry="18" />
        </clipPath>
    </defs>
</svg>